#!OML:ASF E:\Steps\Project 1\Capture day 1\Session 2\Subject.ASF
:FULLY-SPECIFIED
:DEGREES
321
root 9.38684 16.4973 26.2006 -152.11 -0.448193 170.222
lowerback -16.2866 -3.79825 -11.9655
upperback 0.707949 -2.83997 -2.16042
thorax 10.4593 -2.06127 3.62453
lowerneck 1.90083 -2.3634 -2.26378
upperneck -5.56398 -2.84603 5.52835
head -1.96938 -1.45583 2.2195
rclavicle -5.03919e-014 -7.11649e-014
rhumerus -31.5163 4.78666 -91.8106
rradius 63.0314
rwrist -14.5937
rhand -15.0832 -45.26
rfingers 7.12502
rthumb 11.0845 -74.9473
lclavicle -5.03919e-014 -7.11649e-014
lhumerus -27.5604 -15.4505 87.2218
lradius 43.4967
lwrist 1.10584
lhand -32.7798 -16.3115
lfingers 7.12502
lthumb -6.00158 13.5835
rfemur -26.3618 1.35482 11.8014
rtibia 42.6063
rfoot 2.23099 -0.598077
rtoes -33.518
lfemur -30.2763 -5.91278 -29.0835
ltibia 47.6738
lfoot 18.0233 1.77682
ltoes -33.0752
322
root 9.38466 16.7649 25.9397 -152.467 -0.716791 169.827
lowerback -17.0818 -3.83891 -12.1124
upperback 0.484806 -2.784 -2.28515
thorax 10.6498 -2.05191 3.55201
lowerneck 1.9035 -2.58873 -2.31797
upperneck -4.42966 -3.22481 5.55651
head -1.58512 -1.64867 2.22178
rclavicle 1.02374e-014 2.14687e-014
rhumerus -32.6577 4.67374 -91.8453
rradius 63.0887
rwrist -15.3333
rhand -14.0103 -44.4915
rfingers 7.12502
rthumb 12.1192 -74.1205
lclavicle 1.02374e-014 2.14687e-014
lhumerus -28.0433 -15.8987 87.3938
lradius 43.3306
lwrist 2.25375
lhand -32.4424 -16.0563
lfingers 7.12502
lthumb -5.67588 13.8477
rfemur -24.71 0.943901 11.1428
rtibia 40.178
rfoot 7.2998 -0.65497
rtoes -34.9809
lfemur -29.0337 -6.02707 -29.4886
ltibia 45.755
lfoot 22.1349 3.38681
ltoes -29.0294
323
root 9.38207 17.0258 25.6946 -152.464 -0.880755 169.705
lowerback -18.0095 -3.90951 -12.2548
upperback 0.244473 -2.75257 -2.15192
thorax 10.9123 -2.05688 3.75347
lowerneck 1.70881 -2.76013 -2.31746
upperneck -4.16743 -3.4815 5.31201
head -1.4585 -1.77139 2.13523
rclavicle -6.65929e-015 -1.59028e-014
rhumerus -33.5219 4.82895 -91.5595
rradius 62.9447
rwrist -15.5131
rhand -13.2982 -51.6939
rfingers 7.12502
rthumb 12.8058 -81.2811
lclavicle -6.65929e-015 -1.59028e-014
lhumerus -28.4439 -15.9571 87.7114
lradius 43.382
lwrist 3.26335
lhand -32.2923 -15.729
lfingers 7.12502
lthumb -5.53096 14.1788
rfemur -23.8902 0.996876 10.732
rtibia 38.2774
rfoot 11.715 -0.920502
rtoes -35.2594
lfemur -28.5336 -6.04874 -29.6402
ltibia 44.4768
lfoot 24.8565 4.37446
ltoes -32.2963
324
root 9.37892 17.2771 25.4679 -152.185 -0.721652 169.749
lowerback -19.0595 -3.83421 -12.0729
upperback -0.0342058 -2.58419 -2.17449
thorax 11.1466 -1.97998 3.63964
lowerneck 1.55562 -2.89188 -2.2064
upperneck -4.18752 -3.6614 5.09039
head -1.43517 -1.85744 2.04207
rclavicle 1.15295e-014 3.02153e-014
rhumerus -34.2309 4.84745 -91.5094
rradius 62.6093
rwrist -15.1657
rhand -12.4711 -53.5013
rfingers 7.12502
rthumb 13.603 -83.0369
lclavicle 1.15295e-014 3.02153e-014
lhumerus -28.6903 -15.9336 87.6846
lradius 43.5453
lwrist 4.41867
lhand -31.5231 -14.8782
lfingers 7.12502
lthumb -4.78827 15.0477
rfemur -23.8934 1.68199 10.3663
rtibia 36.9945
rfoot 17.9911 -2.17339
rtoes -27.4286
lfemur -28.7045 -5.8575 -29.7398
ltibia 43.7261
lfoot 26.6817 5.14647
ltoes -36.4689
325
root 9.37979 17.5177 25.2478 -151.775 -0.587338 169.937
lowerback -19.3575 -3.70729 -12.063
upperback -0.842366 -2.51931 -1.96287
thorax 10.3803 -1.91697 3.91108
lowerneck 1.5841 -3.31725 -1.89633
upperneck -3.40967 -4.29652 4.42365
head -1.18528 -2.17407 1.76438
rclavicle 1.34677e-014 -4.49253e-014
rhumerus -35.8727 4.93007 -91.2344
rradius 62.4226
rwrist -14.5762
rhand -11.4301 -51.5406
rfingers 7.12502
rthumb 14.6062 -81.0062
lclavicle 1.34677e-014 -4.49253e-014
lhumerus -29.8526 -15.6373 88.2053
lradius 43.6903
lwrist 4.57188
lhand -31.2717 -14.4892
lfingers 7.12502
lthumb -4.5455 15.442
rfemur -24.2709 2.66461 10.2125
rtibia 36.0472
rfoot 22.5312 -3.96068
rtoes -22.3725
lfemur -29.2967 -5.58074 -29.6811
ltibia 43.5028
lfoot 27.8832 6.08742
ltoes -38.651
